<svg width="228" height="38" viewBox="0 0 228 38" fill="none" xmlns="http://www.w3.org/2000/svg">
<path d="M209.947 27.4545L209.879 22.4773H210.697L222.152 10.8182H227.129L214.925 23.1591H214.584L209.947 27.4545ZM206.197 37V2.09091H210.22V37H206.197ZM222.834 37L212.607 24.0455L215.47 21.25L227.947 37H222.834Z" fill="white"/>
<path d="M186.271 37.5455C184.089 37.5455 182.163 36.9943 180.493 35.892C178.822 34.7784 177.516 33.2102 176.572 31.1875C175.629 29.1534 175.158 26.75 175.158 23.9773C175.158 21.2273 175.629 18.8409 176.572 16.8182C177.516 14.7955 178.828 13.233 180.51 12.1307C182.192 11.0284 184.135 10.4773 186.339 10.4773C188.044 10.4773 189.391 10.7614 190.379 11.3295C191.379 11.8864 192.141 12.5227 192.663 13.2386C193.197 13.9432 193.612 14.5227 193.908 14.9773H194.249V2.09091H198.271V37H194.385V32.9773H193.908C193.612 33.4545 193.192 34.0568 192.646 34.7841C192.101 35.5 191.322 36.142 190.311 36.7102C189.3 37.267 187.953 37.5455 186.271 37.5455ZM186.817 33.9318C188.43 33.9318 189.794 33.5114 190.908 32.6705C192.021 31.8182 192.868 30.642 193.447 29.142C194.027 27.6307 194.317 25.8864 194.317 23.9091C194.317 21.9545 194.033 20.2443 193.464 18.7784C192.896 17.3011 192.055 16.1534 190.942 15.3352C189.828 14.5057 188.453 14.0909 186.817 14.0909C185.112 14.0909 183.692 14.5284 182.555 15.4034C181.43 16.267 180.584 17.4432 180.016 18.9318C179.459 20.4091 179.18 22.0682 179.18 23.9091C179.18 25.7727 179.464 27.4659 180.033 28.9886C180.612 30.5 181.464 31.7045 182.589 32.6023C183.726 33.4886 185.135 33.9318 186.817 33.9318Z" fill="white"/>
<path d="M166.098 37.2727C165.257 37.2727 164.536 36.9716 163.933 36.3693C163.331 35.7671 163.03 35.0455 163.03 34.2045C163.03 33.3636 163.331 32.642 163.933 32.0398C164.536 31.4375 165.257 31.1364 166.098 31.1364C166.939 31.1364 167.661 31.4375 168.263 32.0398C168.865 32.642 169.166 33.3636 169.166 34.2045C169.166 34.7614 169.024 35.2727 168.74 35.7386C168.467 36.2045 168.098 36.5795 167.632 36.8636C167.178 37.1364 166.666 37.2727 166.098 37.2727Z" fill="white"/>
<path d="M139.69 21.8636V37H132.429V2.09091H139.486V15.4375H139.793C140.384 13.892 141.338 12.6818 142.656 11.8068C143.974 10.9205 145.628 10.4773 147.616 10.4773C149.435 10.4773 151.02 10.875 152.372 11.6705C153.736 12.4545 154.793 13.5852 155.543 15.0625C156.304 16.5284 156.679 18.2841 156.668 20.3295V37H149.406V21.625C149.418 20.0114 149.009 18.7557 148.179 17.858C147.361 16.9602 146.213 16.5114 144.736 16.5114C143.747 16.5114 142.872 16.7216 142.111 17.142C141.361 17.5625 140.77 18.1761 140.338 18.983C139.918 19.7784 139.702 20.7386 139.69 21.8636Z" fill="white"/>
<path d="M127.136 10.8182V16.2727H111.369V10.8182H127.136ZM114.949 4.54546H122.21V28.9545C122.21 29.625 122.313 30.1477 122.517 30.5227C122.722 30.8864 123.006 31.142 123.369 31.2898C123.744 31.4375 124.176 31.5114 124.665 31.5114C125.006 31.5114 125.347 31.483 125.688 31.4261C126.028 31.358 126.29 31.3068 126.472 31.2727L127.614 36.6761C127.25 36.7898 126.739 36.9205 126.08 37.0682C125.42 37.2273 124.619 37.3239 123.676 37.358C121.926 37.4261 120.392 37.1932 119.074 36.6591C117.767 36.125 116.75 35.2955 116.023 34.1705C115.295 33.0455 114.938 31.625 114.949 29.9091V4.54546Z" fill="white"/>
<path d="M96.4545 37.5114C93.7614 37.5114 91.4432 36.9659 89.5 35.875C87.5682 34.7727 86.0795 33.2159 85.0341 31.2045C83.9886 29.1818 83.4659 26.7898 83.4659 24.0284C83.4659 21.3352 83.9886 18.9716 85.0341 16.9375C86.0795 14.9034 87.5511 13.3182 89.4489 12.1818C91.358 11.0454 93.5966 10.4773 96.1648 10.4773C97.892 10.4773 99.5 10.7557 100.989 11.3125C102.489 11.8579 103.795 12.6818 104.909 13.7841C106.034 14.8864 106.909 16.2727 107.534 17.9432C108.159 19.6023 108.472 21.5454 108.472 23.7727V25.767H86.3636V21.267H101.636C101.636 20.2216 101.409 19.2954 100.955 18.4886C100.5 17.6818 99.8693 17.0511 99.0625 16.5966C98.267 16.1307 97.3409 15.8977 96.2841 15.8977C95.1818 15.8977 94.2045 16.1534 93.3523 16.6648C92.5114 17.1648 91.8523 17.8409 91.375 18.6932C90.8977 19.5341 90.6534 20.4716 90.642 21.5057V25.7841C90.642 27.0795 90.8807 28.1989 91.358 29.142C91.8466 30.0852 92.5341 30.8125 93.4205 31.3239C94.3068 31.8352 95.358 32.0909 96.5739 32.0909C97.3807 32.0909 98.1193 31.9773 98.7898 31.75C99.4602 31.5227 100.034 31.1818 100.511 30.7273C100.989 30.2727 101.352 29.7159 101.602 29.0568L108.318 29.5C107.977 31.1136 107.278 32.5227 106.222 33.7273C105.176 34.9204 103.824 35.8523 102.165 36.5227C100.517 37.1818 98.6136 37.5114 96.4545 37.5114Z" fill="white"/>
<path d="M54.1435 37V2.09091H61.4048V15.2159H61.6264C61.9446 14.5114 62.4048 13.7955 63.0071 13.0682C63.6207 12.3295 64.4162 11.7159 65.3935 11.2273C66.3821 10.7273 67.6094 10.4773 69.0753 10.4773C70.9844 10.4773 72.7457 10.9773 74.3594 11.9773C75.973 12.9659 77.2628 14.4602 78.2287 16.4602C79.1946 18.4489 79.6776 20.9432 79.6776 23.9432C79.6776 26.8636 79.206 29.3295 78.2628 31.3409C77.331 33.3409 76.0582 34.858 74.4446 35.892C72.8423 36.9148 71.0469 37.4261 69.0582 37.4261C67.6491 37.4261 66.4503 37.1932 65.4616 36.7273C64.4844 36.2614 63.6832 35.6761 63.0582 34.9716C62.4332 34.2557 61.956 33.5341 61.6264 32.8068H61.3026V37H54.1435ZM61.2514 23.9091C61.2514 25.4659 61.4673 26.8239 61.8991 27.983C62.331 29.1421 62.956 30.0455 63.7741 30.6932C64.5923 31.3295 65.5866 31.6477 66.7571 31.6477C67.9389 31.6477 68.9389 31.3239 69.7571 30.6761C70.5753 30.017 71.1946 29.108 71.6151 27.9489C72.0469 26.7784 72.2628 25.4318 72.2628 23.9091C72.2628 22.3977 72.0526 21.0682 71.6321 19.9205C71.2116 18.7727 70.5923 17.875 69.7741 17.2273C68.956 16.5795 67.9503 16.2557 66.7571 16.2557C65.5753 16.2557 64.5753 16.5682 63.7571 17.1932C62.9503 17.8182 62.331 18.7045 61.8991 19.8523C61.4673 21 61.2514 22.3523 61.2514 23.9091Z" fill="white"/>
<path d="M48.8381 18.2841L42.1903 18.6932C42.0767 18.125 41.8324 17.6136 41.4574 17.1591C41.0824 16.6932 40.5881 16.3239 39.9744 16.0511C39.3722 15.767 38.6506 15.625 37.8097 15.625C36.6847 15.625 35.7358 15.8636 34.9631 16.3409C34.1903 16.8068 33.804 17.4318 33.804 18.2159C33.804 18.8409 34.054 19.3693 34.554 19.8011C35.054 20.2329 35.9119 20.5795 37.1278 20.8409L41.8665 21.7954C44.4119 22.3182 46.3097 23.1591 47.5597 24.3182C48.8097 25.4773 49.4347 27 49.4347 28.8864C49.4347 30.6023 48.929 32.1079 47.9176 33.4034C46.9176 34.6989 45.5426 35.7102 43.7926 36.4375C42.054 37.1534 40.0483 37.5114 37.7756 37.5114C34.3097 37.5114 31.5483 36.7898 29.4915 35.3466C27.446 33.892 26.2472 31.9148 25.8949 29.4148L33.0369 29.0398C33.2528 30.0966 33.7756 30.9034 34.6051 31.4602C35.4347 32.0057 36.4972 32.2784 37.7926 32.2784C39.0653 32.2784 40.0881 32.0341 40.8608 31.5454C41.6449 31.0454 42.0426 30.4034 42.054 29.6193C42.0426 28.9602 41.7642 28.4204 41.2187 28C40.6733 27.5682 39.8324 27.2386 38.696 27.0114L34.1619 26.1079C31.6051 25.5966 29.7017 24.7102 28.4517 23.4489C27.2131 22.1875 26.5937 20.5795 26.5937 18.625C26.5937 16.9432 27.0483 15.4943 27.9574 14.2784C28.8778 13.0625 30.1676 12.125 31.8267 11.4659C33.4972 10.8068 35.4517 10.4773 37.6903 10.4773C40.9972 10.4773 43.5994 11.1761 45.4972 12.5739C47.4062 13.9716 48.5199 15.875 48.8381 18.2841Z" fill="white"/>
<path d="M13.9759 37V10.8182H21.2372V37H13.9759ZM17.6236 7.44318C16.544 7.44318 15.6179 7.08523 14.8452 6.36932C14.0838 5.64204 13.7031 4.77273 13.7031 3.76136C13.7031 2.76136 14.0838 1.90341 14.8452 1.1875C15.6179 0.460225 16.544 0.0965881 17.6236 0.0965881C18.7031 0.0965881 19.6236 0.460225 20.3849 1.1875C21.1577 1.90341 21.544 2.76136 21.544 3.76136C21.544 4.77273 21.1577 5.64204 20.3849 6.36932C19.6236 7.08523 18.7031 7.44318 17.6236 7.44318Z" fill="white"/>
<path d="M8.15908 2.09091V37H0.89772V2.09091H8.15908Z" fill="white"/>
</svg>
