<svg width="56" height="38" viewBox="0 0 56 38" fill="none" xmlns="http://www.w3.org/2000/svg">
<g clip-path="url(#clip0_11_165)">
<path d="M54.4201 0H0V22.8349C0 26.6697 2.98433 29.633 6.8464 29.633H8.77743V26.1468H6.8464C5.09091 26.1468 3.68652 24.7523 3.51097 22.8349V10.4587H42.1317V22.8349C42.1317 24.578 40.7273 25.9725 38.7962 26.1468H36.8652V29.633H38.7962C42.4828 29.633 45.4671 26.6697 45.4671 22.8349V3.48624H54.2445C55.2978 3.48624 56 2.78899 56 1.74312C56 0.697248 55.4734 0 54.4201 0Z" fill="black"/>
<path d="M22.8213 17.7798C17.2038 17.7798 12.6395 22.3119 12.6395 27.8899C12.6395 33.4679 17.2038 38 22.8213 38C28.4389 38 33.0032 33.4679 33.0032 27.8899C33.0032 22.3119 28.4389 17.7798 22.8213 17.7798ZM27.5768 27.8899C27.5768 30.5094 25.4409 32.633 22.8213 32.633V32.633C20.2018 32.633 18.0659 30.5094 18.0659 27.8899V27.8899C18.0659 25.2703 20.2018 23.1468 22.8213 23.1468V23.1468C25.4409 23.1468 27.5768 25.2703 27.5768 27.8899V27.8899Z" fill="black"/>
</g>
<defs>
<clipPath id="clip0_11_165">
<rect width="56" height="38" fill="white"/>
</clipPath>
</defs>
</svg>
